<svg xmlns="http://www.w3.org/2000/svg" xmlns:xlink="http://www.w3.org/1999/xlink" width="150" zoomAndPan="magnify" viewBox="0 0 112.5 56.249996" height="75" preserveAspectRatio="xMidYMid meet" version="1.0"><defs><g/><clipPath id="bc50aea198"><path d="M 16.53125 4.488281 L 48 4.488281 L 48 20 L 16.53125 20 Z M 16.53125 4.488281 " clip-rule="nonzero"/></clipPath><clipPath id="d42e235cbc"><path d="M 53 4.488281 L 76 4.488281 L 76 10 L 53 10 Z M 53 4.488281 " clip-rule="nonzero"/></clipPath><clipPath id="6cf3d5eec1"><path d="M 81 26 L 91 26 L 91 28.277344 L 81 28.277344 Z M 81 26 " clip-rule="nonzero"/></clipPath></defs><g clip-path="url(#bc50aea198)"><path fill="#2b59ff" d="M 45.578125 4.699219 C 46.148438 4.605469 46.726562 4.496094 47.308594 4.488281 C 45.628906 4.75 43.96875 5.160156 42.382812 5.773438 C 40.917969 6.339844 39.535156 7.113281 38.289062 8.0625 C 37.125 8.933594 36.085938 9.949219 34.984375 10.890625 C 33.742188 11.921875 32.382812 12.808594 30.980469 13.605469 C 27.96875 15.296875 24.75 16.589844 21.476562 17.667969 C 20.066406 18.128906 18.640625 18.550781 17.203125 18.917969 C 16.988281 18.964844 16.78125 19.039062 16.5625 19.050781 C 17.382812 18.851562 18.191406 18.59375 19 18.355469 C 22.429688 17.296875 25.808594 16.023438 28.996094 14.359375 C 31.246094 13.183594 33.402344 11.800781 35.292969 10.09375 C 35.746094 9.703125 36.152344 9.265625 36.609375 8.882812 C 39.136719 6.6875 42.296875 5.292969 45.578125 4.699219 Z M 45.578125 4.699219 " fill-opacity="1" fill-rule="nonzero"/></g><g clip-path="url(#d42e235cbc)"><path fill="#2b59ff" d="M 53.535156 4.964844 C 57.175781 4.726562 60.828125 5.007812 64.433594 5.519531 C 65.375 5.59375 66.257812 5.953125 67.144531 6.25 C 69.925781 7.203125 72.675781 8.253906 75.34375 9.496094 C 73.066406 9.292969 70.777344 9.222656 68.488281 9.21875 C 65.757812 9.207031 63.027344 9.285156 60.296875 9.421875 C 59.648438 9.457031 58.992188 9.476562 58.347656 9.359375 C 57.835938 9.261719 57.335938 9.070312 56.933594 8.730469 C 55.847656 7.753906 54.816406 6.714844 53.644531 5.839844 C 53.441406 5.679688 53.1875 5.570312 53.042969 5.347656 C 52.988281 5.273438 52.976562 5.152344 53.0625 5.097656 C 53.199219 5 53.375 4.984375 53.535156 4.964844 Z M 53.535156 4.964844 " fill-opacity="1" fill-rule="nonzero"/></g><path fill="#2b59ff" d="M 47.710938 5.628906 C 48.640625 5.53125 49.589844 5.578125 50.488281 5.84375 C 51.6875 6.183594 52.765625 6.875 53.644531 7.75 C 54.382812 8.480469 54.980469 9.339844 55.480469 10.246094 C 51.886719 10.390625 48.289062 10.523438 44.691406 10.671875 C 44.199219 9.59375 43.5625 8.570312 42.71875 7.730469 C 42.582031 7.582031 42.390625 7.46875 42.328125 7.265625 C 42.316406 7.105469 42.492188 7.035156 42.609375 6.976562 C 43.21875 6.722656 43.84375 6.511719 44.472656 6.316406 C 45.527344 5.992188 46.609375 5.734375 47.710938 5.628906 Z M 47.710938 5.628906 " fill-opacity="1" fill-rule="nonzero"/><path fill="#2b59ff" d="M 40.671875 7.878906 C 40.910156 7.761719 41.140625 7.597656 41.414062 7.585938 C 41.621094 7.609375 41.78125 7.761719 41.941406 7.886719 C 42.402344 8.304688 42.761719 8.820312 43.101562 9.335938 C 43.292969 9.628906 43.472656 9.929688 43.640625 10.238281 C 43.695312 10.351562 43.761719 10.488281 43.703125 10.613281 C 43.621094 10.742188 43.449219 10.726562 43.316406 10.730469 C 42.328125 10.71875 41.34375 10.734375 40.359375 10.761719 C 39.414062 10.804688 38.46875 10.855469 37.535156 11.007812 C 37.195312 11.066406 36.851562 11.132812 36.535156 11.277344 C 37.253906 10.046875 38.378906 9.101562 39.609375 8.417969 C 39.957031 8.21875 40.316406 8.054688 40.671875 7.878906 Z M 40.671875 7.878906 " fill-opacity="1" fill-rule="nonzero"/><path fill="#2b59ff" d="M 63.546875 10.03125 C 65.703125 9.980469 67.855469 9.925781 70.007812 9.824219 C 72.332031 9.746094 74.660156 9.777344 76.976562 9.992188 C 78.980469 10.167969 80.980469 10.382812 82.972656 10.644531 C 84.023438 10.789062 85.074219 10.941406 86.113281 11.148438 C 87.65625 11.449219 89.214844 11.753906 90.660156 12.386719 C 91.09375 12.582031 91.519531 12.800781 91.921875 13.054688 C 91.101562 12.738281 90.261719 12.464844 89.394531 12.300781 C 89.027344 12.226562 88.65625 12.1875 88.289062 12.117188 C 87.871094 12.082031 87.449219 12.121094 87.03125 12.113281 C 85.734375 12.125 84.429688 12.164062 83.144531 12.34375 C 82.972656 12.367188 82.78125 12.398438 82.675781 12.550781 C 82.582031 12.695312 82.652344 12.878906 82.71875 13.019531 C 83.164062 13.808594 83.566406 14.625 83.980469 15.429688 C 84.265625 15.996094 84.5625 16.558594 84.835938 17.132812 C 83.707031 15.332031 82.152344 13.804688 80.347656 12.6875 C 80.039062 12.496094 79.726562 12.316406 79.398438 12.160156 C 78.953125 11.957031 78.472656 11.84375 77.988281 11.769531 C 77.058594 11.648438 76.144531 11.449219 75.222656 11.296875 C 70.824219 10.53125 66.363281 10.085938 61.898438 10.078125 C 62.445312 10.039062 62.996094 10.046875 63.546875 10.03125 Z M 63.546875 10.03125 " fill-opacity="1" fill-rule="nonzero"/><path fill="#2b59ff" d="M 74.527344 12.476562 C 75.226562 12.625 75.929688 12.875 76.464844 13.363281 C 76.773438 13.640625 77.003906 14.007812 77.101562 14.414062 C 77.167969 14.679688 77.132812 14.976562 76.96875 15.199219 C 76.769531 15.472656 76.453125 15.632812 76.136719 15.734375 C 76.425781 15.515625 76.722656 15.265625 76.84375 14.914062 C 76.960938 14.582031 76.851562 14.214844 76.648438 13.941406 C 76.332031 13.507812 75.882812 13.195312 75.425781 12.925781 C 75.136719 12.757812 74.835938 12.605469 74.527344 12.476562 Z M 74.527344 12.476562 " fill-opacity="1" fill-rule="nonzero"/><path fill="#2b59ff" d="M 87.925781 12.472656 C 88.121094 12.449219 88.316406 12.441406 88.511719 12.460938 C 89.429688 12.648438 90.359375 12.808594 91.253906 13.101562 C 91.515625 13.1875 91.777344 13.292969 91.992188 13.472656 C 92.273438 13.695312 92.457031 14.023438 92.574219 14.363281 C 92.78125 14.96875 92.996094 15.574219 93.148438 16.199219 C 93.207031 16.464844 93.277344 16.761719 93.136719 17.015625 C 93.058594 17.179688 92.867188 17.261719 92.691406 17.25 C 90.9375 17.117188 89.175781 17.046875 87.414062 17.019531 C 86.960938 17 86.496094 17.0625 86.0625 16.910156 C 85.574219 16.742188 85.21875 16.339844 84.929688 15.925781 C 84.460938 15.242188 84.039062 14.523438 83.648438 13.789062 C 83.527344 13.539062 83.414062 13.257812 83.484375 12.976562 C 83.539062 12.773438 83.757812 12.683594 83.953125 12.667969 C 85.273438 12.539062 86.601562 12.539062 87.925781 12.472656 Z M 87.925781 12.472656 " fill-opacity="1" fill-rule="nonzero"/><path fill="#2b59ff" d="M 73.4375 12.519531 C 74.128906 12.464844 74.777344 12.777344 75.355469 13.121094 C 75.722656 13.34375 76.078125 13.609375 76.328125 13.964844 C 76.527344 14.257812 76.632812 14.625 76.566406 14.976562 C 76.472656 15.292969 76.183594 15.511719 75.875 15.605469 C 75.484375 15.71875 75.0625 15.703125 74.664062 15.628906 C 73.722656 15.445312 72.910156 14.761719 72.53125 13.886719 C 72.410156 13.625 72.394531 13.292969 72.582031 13.058594 C 72.796875 12.796875 73.085938 12.550781 73.4375 12.519531 Z M 73.4375 12.519531 " fill-opacity="1" fill-rule="nonzero"/><path fill="#2b59ff" d="M 77.929688 12.539062 C 78.609375 12.421875 79.292969 12.691406 79.84375 13.074219 C 80.199219 13.316406 80.511719 13.609375 80.800781 13.925781 C 81.066406 14.199219 81.238281 14.554688 81.328125 14.921875 C 81.394531 15.214844 81.398438 15.558594 81.207031 15.808594 C 80.976562 16.097656 80.582031 16.191406 80.234375 16.183594 C 79.289062 16.09375 78.394531 15.582031 77.839844 14.816406 C 77.636719 14.539062 77.476562 14.234375 77.351562 13.917969 C 77.253906 13.625 77.226562 13.292969 77.351562 13.003906 C 77.449219 12.765625 77.675781 12.585938 77.929688 12.539062 Z M 77.929688 12.539062 " fill-opacity="1" fill-rule="nonzero"/><path fill="#2b59ff" d="M 79.507812 12.640625 C 80.109375 12.96875 80.707031 13.308594 81.222656 13.761719 C 81.484375 14 81.730469 14.261719 81.871094 14.589844 C 81.976562 14.835938 81.988281 15.128906 81.863281 15.371094 C 81.773438 15.570312 81.605469 15.722656 81.4375 15.855469 C 81.613281 15.53125 81.65625 15.140625 81.539062 14.792969 C 81.359375 14.234375 80.949219 13.789062 80.523438 13.402344 C 80.210938 13.117188 79.855469 12.882812 79.507812 12.640625 Z M 79.507812 12.640625 " fill-opacity="1" fill-rule="nonzero"/><path fill="#2b59ff" d="M 92.75 13.917969 C 92.765625 13.910156 92.800781 13.890625 92.820312 13.882812 C 92.984375 13.917969 93.113281 14.042969 93.234375 14.15625 C 93.582031 14.527344 93.824219 14.980469 94.03125 15.445312 C 94.164062 15.765625 94.316406 16.089844 94.363281 16.4375 C 94.378906 16.585938 94.394531 16.765625 94.28125 16.882812 C 94.210938 16.929688 94.136719 16.871094 94.082031 16.828125 C 93.632812 16.382812 93.40625 15.769531 93.121094 15.214844 C 92.96875 14.890625 92.808594 14.570312 92.722656 14.222656 C 92.707031 14.121094 92.679688 14 92.75 13.917969 Z M 92.75 13.917969 " fill-opacity="1" fill-rule="nonzero"/><path fill="#2b59ff" d="M 62.390625 15.019531 C 63.152344 14.882812 63.957031 14.890625 64.6875 15.171875 C 65.324219 15.414062 65.878906 15.851562 66.304688 16.382812 C 66.835938 17.046875 67.191406 17.832031 67.425781 18.644531 C 67.679688 19.535156 67.800781 20.464844 67.789062 21.390625 C 67.742188 22.214844 67.632812 23.039062 67.414062 23.835938 C 67.207031 24.585938 66.898438 25.316406 66.429688 25.941406 C 66.015625 26.488281 65.464844 26.941406 64.828125 27.207031 C 64.109375 27.511719 63.300781 27.585938 62.527344 27.484375 C 63.199219 27.417969 63.867188 27.199219 64.410156 26.792969 C 65.027344 26.335938 65.472656 25.679688 65.777344 24.980469 C 66.171875 24.074219 66.367188 23.09375 66.484375 22.113281 C 66.605469 21.160156 66.589844 20.195312 66.46875 19.242188 C 66.367188 18.457031 66.175781 17.671875 65.808594 16.964844 C 65.496094 16.355469 65.035156 15.8125 64.441406 15.464844 C 63.828125 15.097656 63.097656 14.972656 62.390625 15.019531 Z M 62.390625 15.019531 " fill-opacity="1" fill-rule="nonzero"/><path fill="#2b59ff" d="M 36.9375 17.140625 C 37.289062 17.746094 37.671875 18.347656 38.167969 18.847656 C 38.457031 19.136719 38.792969 19.382812 39.175781 19.53125 C 39.578125 19.6875 40.011719 19.730469 40.441406 19.757812 C 45.621094 20.074219 50.804688 20.367188 55.984375 20.671875 C 56.300781 20.703125 56.617188 20.6875 56.929688 20.742188 C 54.476562 20.6875 52.019531 20.664062 49.5625 20.617188 C 46.410156 20.574219 43.257812 20.519531 40.105469 20.476562 C 39.699219 20.457031 39.28125 20.496094 38.878906 20.410156 C 38.277344 20.273438 37.808594 19.773438 37.621094 19.195312 C 37.394531 18.507812 37.152344 17.828125 36.9375 17.140625 Z M 36.9375 17.140625 " fill-opacity="1" fill-rule="nonzero"/><path fill="#2b59ff" d="M 40.652344 21.4375 C 40.835938 21.414062 41.015625 21.371094 41.203125 21.375 C 44.621094 21.507812 48.046875 21.632812 51.46875 21.734375 C 52.707031 21.765625 53.945312 21.804688 55.1875 21.808594 C 55.324219 21.8125 55.464844 21.824219 55.601562 21.84375 C 55.109375 21.832031 54.621094 21.886719 54.128906 21.890625 C 51.019531 22.019531 47.90625 22.027344 44.792969 22.011719 C 42.339844 22 39.886719 21.957031 37.4375 21.898438 C 38.507812 21.734375 39.582031 21.59375 40.652344 21.4375 Z M 40.652344 21.4375 " fill-opacity="1" fill-rule="nonzero"/><path fill="#2b59ff" d="M 69.410156 21.816406 C 69.4375 21.742188 69.519531 21.753906 69.585938 21.753906 C 71.421875 21.839844 73.257812 21.921875 75.09375 21.878906 C 75.382812 22.445312 75.875 22.910156 76.472656 23.128906 C 76.863281 23.28125 77.28125 23.339844 77.695312 23.320312 C 81.015625 23.53125 84.339844 23.703125 87.664062 23.65625 C 88.847656 23.613281 90.03125 23.539062 91.210938 23.429688 C 92.128906 23.339844 93.046875 23.230469 93.949219 23.042969 C 94.335938 22.953125 94.726562 22.859375 95.09375 22.707031 C 95.285156 22.621094 95.488281 22.527344 95.601562 22.34375 C 95.792969 22.585938 95.878906 22.890625 95.964844 23.183594 C 96.046875 23.460938 95.992188 23.773438 95.800781 23.996094 C 95.527344 24.316406 95.121094 24.480469 94.730469 24.613281 C 93.914062 24.871094 93.0625 24.984375 92.214844 25.082031 C 90.019531 25.316406 87.808594 25.378906 85.601562 25.457031 C 81.035156 25.605469 76.460938 25.46875 71.910156 25.082031 C 71.175781 25.015625 70.441406 24.949219 69.710938 24.863281 C 69.65625 24.847656 69.558594 24.855469 69.550781 24.777344 C 69.550781 23.789062 69.5 22.800781 69.410156 21.816406 Z M 69.410156 21.816406 " fill-opacity="1" fill-rule="nonzero"/><path fill="#2b59ff" d="M 66.207031 26.761719 C 67.445312 25.695312 68.082031 24.050781 68.148438 22.441406 C 68.261719 22.886719 68.253906 23.347656 68.285156 23.804688 C 68.296875 24.410156 68.316406 25.015625 68.28125 25.621094 C 68.308594 25.742188 68.464844 25.777344 68.574219 25.800781 C 69.097656 25.882812 69.632812 25.875 70.164062 25.917969 C 70.015625 26.167969 69.789062 26.359375 69.585938 26.5625 C 69.269531 26.863281 68.941406 27.152344 68.605469 27.429688 C 68.21875 27.746094 67.691406 27.722656 67.222656 27.785156 C 66.214844 27.855469 65.199219 27.929688 64.191406 27.839844 C 64.929688 27.625 65.628906 27.265625 66.207031 26.761719 Z M 66.207031 26.761719 " fill-opacity="1" fill-rule="nonzero"/><path fill="#2b59ff" d="M 29.496094 23.273438 C 30.429688 23.34375 31.359375 23.464844 32.289062 23.550781 C 36.597656 23.984375 40.902344 24.402344 45.214844 24.777344 C 48.101562 25.023438 50.984375 25.261719 53.875 25.429688 C 54.585938 25.457031 55.292969 25.511719 56 25.515625 C 54.855469 25.53125 53.710938 25.5 52.566406 25.492188 C 49.664062 25.46875 46.765625 25.445312 43.863281 25.433594 C 43.65625 25.429688 43.449219 25.441406 43.242188 25.425781 C 38.660156 24.710938 34.078125 23.980469 29.496094 23.273438 Z M 29.496094 23.273438 " fill-opacity="1" fill-rule="nonzero"/><g clip-path="url(#6cf3d5eec1)"><path fill="#2b59ff" d="M 88.085938 26.148438 C 88.984375 26.121094 89.882812 26.082031 90.777344 26.003906 C 90.621094 26.285156 90.359375 26.484375 90.121094 26.6875 C 89.007812 27.558594 87.648438 28.144531 86.230469 28.226562 C 85.324219 28.277344 84.410156 28.097656 83.59375 27.710938 C 82.800781 27.34375 82.101562 26.800781 81.5 26.171875 C 83.695312 26.199219 85.890625 26.203125 88.085938 26.148438 Z M 88.085938 26.148438 " fill-opacity="1" fill-rule="nonzero"/></g><g fill="#000000" fill-opacity="1"><g transform="translate(18.281471, 47.441081)"><g><path d="M 10.171875 0.265625 C 9.847656 0.265625 9.554688 0.207031 9.296875 0.09375 C 9.035156 -0.0195312 8.816406 -0.175781 8.640625 -0.375 C 8.460938 -0.5625 8.304688 -0.816406 8.171875 -1.140625 C 8.035156 -1.460938 7.921875 -1.816406 7.828125 -2.203125 C 7.722656 -2.628906 7.628906 -3.054688 7.546875 -3.484375 C 7.503906 -3.785156 7.425781 -4.0625 7.3125 -4.3125 C 7.195312 -4.570312 7.070312 -4.769531 6.9375 -4.90625 C 6.8125 -5.039062 6.675781 -5.148438 6.53125 -5.234375 C 6.382812 -5.328125 6.265625 -5.382812 6.171875 -5.40625 C 6.085938 -5.425781 6.007812 -5.4375 5.9375 -5.4375 L 4.0625 -5.4375 L 4.0625 -1.140625 L 5.859375 -1.140625 L 5.859375 0 L 0.265625 0 L 0.265625 -1.140625 L 2.1875 -1.140625 L 2.1875 -10.8125 L 0.265625 -10.8125 L 0.265625 -11.9375 L 5.203125 -11.9375 C 5.546875 -11.9375 5.832031 -11.929688 6.0625 -11.921875 C 6.300781 -11.910156 6.601562 -11.890625 6.96875 -11.859375 C 7.40625 -11.816406 7.765625 -11.757812 8.046875 -11.6875 C 8.328125 -11.613281 8.644531 -11.5 9 -11.34375 C 9.332031 -11.1875 9.597656 -11 9.796875 -10.78125 C 9.992188 -10.570312 10.160156 -10.296875 10.296875 -9.953125 C 10.429688 -9.617188 10.5 -9.234375 10.5 -8.796875 C 10.5 -7.867188 10.207031 -7.175781 9.625 -6.71875 C 9.351562 -6.5 9.050781 -6.320312 8.71875 -6.1875 C 8.394531 -6.050781 8 -5.9375 7.53125 -5.84375 C 7.84375 -5.78125 8.097656 -5.691406 8.296875 -5.578125 C 8.503906 -5.472656 8.679688 -5.332031 8.828125 -5.15625 C 8.960938 -4.976562 9.070312 -4.789062 9.15625 -4.59375 C 9.238281 -4.394531 9.320312 -4.132812 9.40625 -3.8125 C 9.476562 -3.550781 9.578125 -3.125 9.703125 -2.53125 C 9.734375 -2.351562 9.78125 -2.164062 9.84375 -1.96875 C 9.90625 -1.78125 9.96875 -1.632812 10.03125 -1.53125 C 10.101562 -1.414062 10.191406 -1.320312 10.296875 -1.25 C 10.398438 -1.175781 10.519531 -1.140625 10.65625 -1.140625 C 11.195312 -1.140625 11.46875 -1.640625 11.46875 -2.640625 L 11.46875 -3.734375 L 12.546875 -3.734375 L 12.546875 -2.578125 C 12.546875 -0.679688 11.753906 0.265625 10.171875 0.265625 Z M 5.046875 -6.640625 C 5.898438 -6.640625 6.59375 -6.695312 7.125 -6.8125 C 7.65625 -6.9375 8.066406 -7.148438 8.359375 -7.453125 C 8.671875 -7.753906 8.828125 -8.15625 8.828125 -8.65625 C 8.828125 -9.082031 8.75 -9.429688 8.59375 -9.703125 C 8.4375 -9.984375 8.191406 -10.207031 7.859375 -10.375 C 7.535156 -10.53125 7.148438 -10.640625 6.703125 -10.703125 C 6.253906 -10.773438 5.679688 -10.8125 4.984375 -10.8125 L 4.0625 -10.8125 L 4.0625 -6.640625 Z M 5.046875 -6.640625 "/></g></g></g><g fill="#000000" fill-opacity="1"><g transform="translate(31.470808, 47.441081)"><g><path d="M 0.265625 0 L 0.265625 -1.140625 L 2.21875 -1.140625 L 2.21875 -10.8125 L 0.265625 -10.8125 L 0.265625 -11.9375 L 11.046875 -11.9375 L 11.046875 -7.34375 L 9.609375 -7.34375 L 9.609375 -10.8125 L 4.078125 -10.8125 L 4.078125 -6.515625 L 7.03125 -6.515625 L 7.03125 -8.46875 L 8.09375 -8.46875 L 8.09375 -3.53125 L 7.03125 -3.53125 L 7.03125 -5.609375 L 4.078125 -5.609375 L 4.078125 -1.140625 L 9.609375 -1.140625 L 9.609375 -4.53125 L 11.046875 -4.53125 L 11.046875 0 Z M 0.265625 0 "/></g></g></g><g fill="#000000" fill-opacity="1"><g transform="translate(43.874918, 47.441081)"><g><path d="M 0.265625 0 L 0.265625 -1.140625 L 2.171875 -1.140625 L 2.171875 -10.8125 L 0.265625 -10.8125 L 0.265625 -11.9375 L 4.546875 -11.9375 L 10.1875 -2.109375 L 10.1875 -10.8125 L 8.25 -10.8125 L 8.25 -11.9375 L 13.515625 -11.9375 L 13.515625 -10.8125 L 11.703125 -10.8125 L 11.703125 0 L 9.578125 0 L 3.6875 -10.25 L 3.6875 -1.140625 L 5.5 -1.140625 L 5.5 0 Z M 0.265625 0 "/></g></g></g><g fill="#000000" fill-opacity="1"><g transform="translate(58.150884, 47.441081)"><g><path d="M 2.9375 0 L 2.9375 -1.140625 L 4.796875 -1.140625 L 4.796875 -10.8125 L 1.75 -10.8125 L 1.75 -7.125 L 0.28125 -7.125 L 0.28125 -11.9375 L 11.109375 -11.9375 L 11.109375 -7.125 L 9.625 -7.125 L 9.625 -10.8125 L 6.671875 -10.8125 L 6.671875 -1.140625 L 8.5625 -1.140625 L 8.5625 0 Z M 2.9375 0 "/></g></g></g><g fill="#000000" fill-opacity="1"><g transform="translate(70.166345, 47.441081)"><g><path d="M 0.0625 0 L 0.0625 -1.140625 L 1.484375 -1.140625 L 5.671875 -11.9375 L 7.546875 -11.9375 L 11.796875 -1.140625 L 13.125 -1.140625 L 13.125 0 L 8 0 L 8 -1.140625 L 9.765625 -1.140625 L 8.671875 -4 L 4.078125 -4 L 3.03125 -1.140625 L 5.03125 -1.140625 L 5.03125 0 Z M 4.453125 -5 L 8.265625 -5 L 6.3125 -10.390625 Z M 4.453125 -5 "/></g></g></g><g fill="#000000" fill-opacity="1"><g transform="translate(83.982276, 47.441081)"><g><path d="M 0.265625 0 L 0.265625 -1.140625 L 2.1875 -1.140625 L 2.1875 -10.8125 L 0.265625 -10.8125 L 0.265625 -11.9375 L 5.875 -11.9375 L 5.875 -10.8125 L 4.0625 -10.8125 L 4.0625 -1.140625 L 8.546875 -1.140625 L 8.546875 -4.953125 L 10.03125 -4.953125 L 10.03125 0 Z M 0.265625 0 "/></g></g></g></svg>